# xmcd CD database file
#
# Track frame offsets:
#	150
#	12903
#	35348
#	49266
#	66196
#	85340
#	103073
#	120798
#	143505
#	160488
#	177391
#	195955
#	216037
#	231152
#	248817
#	265713
#	278852
#	294542
#	313320
#	327676
#
# Disc length: 4530 seconds
#
# Revision: 0
# Processed by: cddbd v1.5.2PL0 Copyright (c) Steve Scherf et al.
# Submitted via: CDex 1.51
#
DISCID=2311b014
DTITLE=Various Artist - Letras de Canciones de Reggaeton - Cubatón II
DYEAR=2007
DGENRE=REGGAETON
TTITLE0=El Médico - Loca
TTITLE1=Candyman feat. Megabanton - Potrica
TTITLE2=Elvis MAnuel and Jerry - La tuba
TTITLE3=Control Cubano - Provocándome
TTITLE4=Million Stylez feat. El Médico - Mis Fatty
TTITLE5=Topaz Sound - Te quiero
TTITLE6=El Médico feat. Puchoman - Pin Pon
TTITLE7=Candyman - Propuesta de amor
TTITLE8=Control Cubano - Letra Chuioquitica
TTITLE9=Cubaton All Stars - Gyal Move
TTITLE10=El Médico feat. Mr. Vegas - Penicilina
TTITLE11=Candyman - Mi musiquita
TTITLE12=Control Cubano - Te quiero suelta
TTITLE13=El Médico - Yo lo vi
TTITLE14=La Familia feat. Micky - Qué pasó
TTITLE15=Rigo feat. Doggelito - Vamos a bailar
TTITLE16=Elvis Manuel and Herry - La mulata
TTITLE17=El Médico - Caliéntate
TTITLE18=Michel feat. El Médico - Te quiero 2
TTITLE19=El Médico - Pin Pon
EXTD=YEAR: 2007
EXTT0=
EXTT1=
EXTT2=
EXTT3=
EXTT4=
EXTT5=
EXTT6=
EXTT7=
EXTT8=
EXTT9=
EXTT10=
EXTT11=
EXTT12=
EXTT13=
EXTT14=
EXTT15=
EXTT16=
EXTT17=
EXTT18=
EXTT19=
PLAYORDER=
